<svg width="9" height="9" viewBox="0 0 9 9" fill="none" xmlns="http://www.w3.org/2000/svg">
<g clip-path="url(#clip0_13_113)">
<path d="M8.15625 4.64063C8.14363 3.75822 7.81423 2.90976 7.22812 2.25L7.425 2.04469L7.3125 1.94625C6.55195 1.23028 5.54449 0.835359 4.5 0.843751C3.4555 0.835359 2.44804 1.23028 1.6875 1.94625L1.575 2.04188L1.77187 2.25C1.18577 2.90976 0.856367 3.75822 0.843749 4.64063C0.832112 5.0393 0.900817 5.43623 1.04577 5.8078C1.19073 6.17937 1.40897 6.51797 1.6875 6.80344V7.59375H2.25C2.25 7.74294 2.30926 7.88601 2.41475 7.9915C2.52024 8.09699 2.66331 8.15625 2.8125 8.15625C2.96168 8.15625 3.10476 8.09699 3.21025 7.9915C3.31574 7.88601 3.375 7.74294 3.375 7.59375V5.34375C3.375 5.19457 3.31574 5.05149 3.21025 4.946C3.10476 4.84051 2.96168 4.78125 2.8125 4.78125C2.66331 4.78125 2.52024 4.84051 2.41475 4.946C2.30926 5.05149 2.25 5.19457 2.25 5.34375H1.6875V6.37594C1.30643 5.87918 1.10782 5.26647 1.125 4.64063C1.13565 3.83384 1.43499 3.05757 1.96875 2.4525L2.15719 2.65219L2.25 2.55375C2.85628 1.97937 3.66507 1.66799 4.5 1.6875C5.33493 1.66799 6.14371 1.97937 6.75 2.55375L6.85125 2.65219L7.03125 2.4525C7.56501 3.05757 7.86435 3.83384 7.875 4.64063C7.89217 5.26647 7.69356 5.87918 7.3125 6.37594V5.34375H6.75C6.75 5.19457 6.69073 5.05149 6.58525 4.946C6.47976 4.84051 6.33668 4.78125 6.1875 4.78125C6.03831 4.78125 5.89524 4.84051 5.78975 4.946C5.68426 5.05149 5.625 5.19457 5.625 5.34375V7.59375C5.625 7.74294 5.68426 7.88601 5.78975 7.9915C5.89524 8.09699 6.03831 8.15625 6.1875 8.15625C6.33668 8.15625 6.47976 8.09699 6.58525 7.9915C6.69073 7.88601 6.75 7.74294 6.75 7.59375H7.3125V6.80344C7.59103 6.51797 7.80927 6.17937 7.95423 5.8078C8.09918 5.43623 8.16788 5.0393 8.15625 4.64063ZM2.8125 5.0625C2.88709 5.0625 2.95863 5.09213 3.01137 5.14488C3.06412 5.19762 3.09375 5.26916 3.09375 5.34375V7.59375C3.09375 7.66834 3.06412 7.73988 3.01137 7.79263C2.95863 7.84537 2.88709 7.875 2.8125 7.875C2.73791 7.875 2.66637 7.84537 2.61363 7.79263C2.56088 7.73988 2.53125 7.66834 2.53125 7.59375V5.34375C2.53125 5.26916 2.56088 5.19762 2.61363 5.14488C2.66637 5.09213 2.73791 5.0625 2.8125 5.0625ZM1.96875 5.625H2.25V7.3125H1.96875V5.625ZM6.83156 2.25C6.18588 1.68938 5.35492 1.38867 4.5 1.40625C3.64508 1.38867 2.81412 1.68938 2.16844 2.25L1.96875 2.05313C2.67015 1.44383 3.57099 1.11353 4.5 1.125C5.42901 1.11353 6.32985 1.44383 7.03125 2.05313L6.83156 2.25ZM6.1875 7.875C6.11291 7.875 6.04137 7.84537 5.98862 7.79263C5.93588 7.73988 5.90625 7.66834 5.90625 7.59375V5.34375C5.90625 5.26916 5.93588 5.19762 5.98862 5.14488C6.04137 5.09213 6.11291 5.0625 6.1875 5.0625C6.26209 5.0625 6.33363 5.09213 6.38637 5.14488C6.43912 5.19762 6.46875 5.26916 6.46875 5.34375V7.59375C6.46875 7.66834 6.43912 7.73988 6.38637 7.79263C6.33363 7.84537 6.26209 7.875 6.1875 7.875ZM7.03125 7.3125H6.75V5.625H7.03125V7.3125Z" fill="#8C9CA3"/>
</g>
<defs>
<clipPath id="clip0_13_113">
<rect width="9" height="9" fill="white"/>
</clipPath>
</defs>
</svg>
